#!OML:ASF F:\VICON\USERDATA\INSTALL\rory3\rory3.ASF
:FULLY-SPECIFIED
:DEGREES
64
root 0.5154772229767189 17.82176540235842 13.079920507327138 7.879169022176782 -0.5230735078522961 -1.5782304029788854
lfemur -17.32613257836254 8.299703401819635 -17.673238637979697
ltibia 23.56276135124121
lfoot -10.794450143754323 5.649872618021906
ltoes -9.138845181013489
rfemur -17.240768676488944 -2.765182805064233 19.544666151465435
rtibia 25.69280606301428
rfoot -14.905992326560904 1.4687952760329157
rtoes 11.269793075990444
lowerback -1.0375976098162427 0.8686734207738144 -0.44068990200238506
upperback 1.2951275643375606 0.9966400458019329 1.320478672482822
thorax 2.24099394580874 0.5362344780616263 1.5917421088887742
lowerneck -11.790122075345952 -0.9283911498420644 -1.9370129257108961
upperneck 28.632262660062803 -1.5006653879423506 2.4676808204844947
head 11.40168582993292 -0.5294839098752627 1.0037359251275781
lclavicle -1.6856372438825722e-15 3.215481492782629e-16
lhumerus -36.605386280423545 6.169552509729728 81.12281138777513
lradius 17.19791580295167
lwrist -0.48455865363881045
lhand -22.625539372439302 -4.472496256808782
lfingers 7.125019999999999
lthumb 3.8042356069017833 25.44501382521791
rclavicle -1.685637243882572e-15 3.215481492782629e-16
rhumerus -28.952700908098613 -23.95379178243272 -75.85035571579395
rradius 21.137154364824795
rwrist 42.13003404916651
rhand -17.467166268346737 -27.93602805977568
rfingers 7.125019999999999
rthumb 8.783874396840382 -57.76343342968417
65
root 0.5224802160127894 17.894395988732768 13.18081106924452 8.707846335478973 -0.5480897280915233 -1.6374032742462654
lfemur -17.399515348687114 8.076382630797891 -17.64430819446383
ltibia 22.758921979887727
lfoot -10.271655540023632 5.567321384336775
ltoes -8.399193631405543
rfemur -17.353530208660214 -2.5067209334610183 19.699238237196024
rtibia 24.80094823557424
rfoot -14.278679117581438 1.2426007545866122
rtoes 12.299174662825525
lowerback -1.0539100116785294 0.9443519292009259 -0.4251399802181055
upperback 1.3264056431577922 1.0905943223903283 1.301027983572901
thorax 2.277750323561923 0.5861874948493146 1.56397318632109
lowerneck -11.879721799169717 -0.9046053654797084 -1.9195310718307
upperneck 28.468569364240818 -1.4754578389579556 2.4369561664737462
head 11.36101810421995 -0.5165710177067372 0.9950233494357285
lclavicle -1.7174694383154922e-15 2.7959286077981533e-16
lhumerus -36.308495049178376 5.908282699282937 81.84905920174836
lradius 17.412543980624434
lwrist 1.1647779173510058
lhand -23.091163911965225 -4.906779588563701
lfingers 7.125019999999999
lthumb 3.354676731417399 25.0246991959878
rclavicle -1.7174694383154924e-15 2.7959286077981533e-16
rhumerus -29.132522813345343 -24.38826686993651 -75.83621126170779
rradius 20.768375531711413
rwrist 42.16682035156674
rhand -17.43827467316852 -27.809099406748093
rfingers 7.125019999999999
rthumb 8.811747894543574 -57.62902748560072
66
root 0.518657615253319 17.95602646961698 13.364988610512288 9.156567047130245 -0.5922594370838559 -1.6957677817760979
lfemur -16.660283538216344 7.960057359703292 -17.594809017498005
ltibia 21.125245532043074
lfoot -10.07490765209876 5.320017540433607
ltoes -7.917243428626245
rfemur -16.549796898316323 -2.30676354898963 19.839102322248003
rtibia 22.913012247454056
rfoot -13.980349597442846 1.2316423677171402
rtoes 12.784583280123044
lowerback -1.6032240403303555 0.9023849675029536 -0.45046114153078215
upperback 1.1339858530972722 1.0291666279774458 1.2531828521165922
thorax 2.515355686623808 0.5577673522694541 1.5280577385783143
lowerneck -11.855418832430829 -0.8484003072343992 -1.9032166036687204
upperneck 28.76073010153738 -1.4165315489908659 2.450109530873065
head 11.479017402230099 -0.4878405116043126 0.9990444220614356
lclavicle -1.7660751176673201e-15 2.1527708889564367e-16
lhumerus -35.45049284763681 4.3032273861969355 82.94828653441141
lradius 18.26793481429611
lwrist 4.025415674341824
lhand -23.56739195689604 -5.3299896482103755
lfingers 7.125019999999999
lthumb 2.8948491162760925 24.613194235456124
rclavicle -1.7660751176673201e-15 2.1527708889564367e-16
rhumerus -28.85826657775226 -23.641307763409678 -76.20576935396802
rradius 21.210129166713116
rwrist 41.61597129159002
rhand -17.461551668104626 -27.614222446115917
rfingers 7.125019999999999
rthumb 8.789327900429225 -57.42841347330945
67
root 0.5262935988746456 18.027392106204562 13.793971906596665 9.563280856406013 -0.5809415520765128 -1.7165060458430854
lfemur -15.67434991824673 7.9405134181956365 -17.48423598152278
ltibia 20.657207043744275
lfoot -9.362288531985804 5.291868845298385
ltoes -6.875621613746404
rfemur -15.607608031450049 -2.213998183985762 19.937018425639437
rtibia 22.45530802897154
rfoot -13.179805381782817 1.4852021391424577
rtoes 13.826130324751638
lowerback -1.7393026044910869 0.9040855206526166 -0.428883908489403
upperback 1.276295592413281 1.0303020668089558 1.2162273203258116
thorax 2.9414501983913732 0.5548652175640857 1.5021572844548787
lowerneck -11.619989739391663 -0.7797877115812751 -1.869428058426848
upperneck 29.19423996978875 -1.3235587883193503 2.4791832304384664
head 11.606330199239157 -0.4518055395692043 1.007453989665051
lclavicle -1.5101251954066373e-15 5.552255314914963e-16
lhumerus -34.562973403163824 3.4427139378399496 84.35728742337355
lradius 19.01676325005939
lwrist 6.204677786612974
lhand -23.90290214131066 -5.582568874445956
lfingers 7.125019999999999
lthumb 2.5709246831720503 24.37240569966737
rclavicle -1.5101251954066373e-15 5.552255314914963e-16
rhumerus -28.357250380051948 -22.654464999945368 -76.68123544849985
rradius 21.621267772668446
rwrist 41.21101118806759
rhand -17.515051352323713 -27.343528487902127
rfingers 7.125019999999999
rthumb 8.73778546074356 -57.15014847099739
